# File produced by Open Asset Import Library (http://www.assimp.sf.net)
# (assimp v5.0.0)

mtllib result.mtl

# 226 vertex positions
v  72.05455 -296.06454 23.790291
v  61.293259 -296.06454 44.910507
v  44.532158 -296.06454 61.671616
v  23.41194 -296.06454 72.432899
v  -2.4343526e-06 -296.06454 76.140984
v  -23.411945 -296.06454 72.432892
v  -44.532154 -296.06454 61.671608
v  -61.293266 -296.06454 44.910503
v  -72.05455 -296.06454 23.790274
v  -75.466942 -296.06454 2.2452645
v  75.466942 -296.06454 2.2452874
v  77.652847 -296.06454 0.37834457
v  73.852249 -296.06454 24.374399
v  62.822475 -296.06454 46.021549
v  45.6432 -296.06454 63.200829
v  23.996048 -296.06454 74.230598
v  -2.7195279e-06 -296.06454 78.031197
v  -23.996054 -296.06454 74.230591
v  -45.643196 -296.06454 63.200821
v  -62.822479 -296.06454 46.021545
v  -73.852249 -296.06454 24.374384
v  -77.652847 -296.06454 0.37832078
v  -72.05455 44.076538 23.790291
v  -61.293259 44.076538 44.910507
v  -44.532158 44.076569 61.671616
v  -23.41194 44.076569 72.432899
v  2.4343462e-06 44.076569 76.140984
v  23.411945 44.076599 72.432892
v  44.532154 44.076599 61.671608
v  61.293266 44.076599 44.910503
v  72.05455 44.076599 23.790274
v  75.466942 44.076599 2.2452645
v  -75.466942 44.076538 2.2452874
v  -77.652847 44.076538 0.37834457
v  -73.852249 44.076538 24.374399
v  -62.822475 44.076538 46.021549
v  -45.6432 44.076569 63.200829
v  -23.996048 44.076569 74.230598
v  2.7195201e-06 44.076569 78.031197
v  23.996054 44.076599 74.230591
v  45.643196 44.076599 63.200821
v  62.822479 44.076599 46.021545
v  73.852249 44.076599 24.374384
v  77.652847 44.076599 0.37832078
v  79.823807 -203.44798 1.112426
v  79.823807 -305.17197 1.1124115
v  80 -305.17197 -4.9718827e-05
v  80 -203.44798 -3.3145883e-05
v  76.084526 -203.44798 24.721327
v  64.721359 -203.448 47.022785
v  64.721359 -305.17197 47.02277
v  76.084526 -305.17197 24.72131
v  47.02282 -203.448 64.721329
v  47.02282 -305.17197 64.721306
v  24.721357 -203.448 76.084496
v  24.721357 -305.17197 76.084473
v  -3.4969109e-06 -203.448 79.999969
v  -3.4969109e-06 -305.17197 79.999947
v  -24.721363 -203.448 76.084488
v  -24.721363 -305.17197 76.084465
v  -47.022816 -203.448 64.721329
v  -47.022816 -305.17197 64.721306
v  -64.721367 -203.448 47.022781
v  -64.721367 -305.17197 47.022766
v  -76.084526 -203.44798 24.721312
v  -76.084526 -305.17197 24.721294
v  -79.823807 -203.44798 1.1124024
v  -79.823807 -305.17197 1.1123866
v  71.981773 -305.17197 23.388247
v  75.519424 -305.17197 1.0524215
v  78.830482 -305.17197 1.098568
v  75.137741 -305.17197 24.413679
v  61.231354 -305.17197 44.487133
v  63.915974 -305.17197 46.437622
v  44.487183 -305.17197 61.231304
v  46.437672 -305.17197 63.915924
v  23.388294 -305.17197 71.98172
v  24.413727 -305.17197 75.137688
v  -2.7809961e-06 -305.17197 75.686066
v  -3.3317001e-06 -305.17197 79.004433
v  -23.3883 -305.17197 71.981712
v  -24.413733 -305.17197 75.13768
v  -44.487179 -305.17197 61.2313
v  -46.437668 -305.17197 63.915924
v  -61.231358 -305.17197 44.487129
v  -63.915981 -305.17197 46.437618
v  -71.981773 -305.17197 23.388231
v  -75.137741 -305.17197 24.413664
v  -75.686119 -305.17197 -7.4419389e-05
v  -75.519424 -305.17197 1.0523994
v  -78.830482 -305.17197 1.0985411
v  -79.004486 -305.17197 -7.5470729e-05
v  71.034988 -305.17197 23.080616
v  74.5261 -305.17197 1.0385779
v  79.004486 -305.17197 -4.9966642e-05
v  60.425968 -305.17197 43.901985
v  43.902035 -305.17197 60.425919
v  23.080664 -305.17197 71.034935
v  -2.6157852e-06 -305.17197 74.690552
v  -23.080669 -305.17197 71.034927
v  -43.902031 -305.17197 60.425915
v  -60.425972 -305.17197 43.901981
v  -71.034988 -305.17197 23.080601
v  -74.690605 -305.17197 -7.4103984e-05
v  -74.5261 -305.17197 1.0385562
v  -80 -203.44798 -5.9213191e-05
v  -80 -305.17197 -7.5786134e-05
v  75.686119 -305.17197 -5.07927e-05
v  74.690605 -305.17197 -5.1040515e-05
v  71.034988 -302.04346 23.080616
v  74.5261 -302.04346 1.0385783
v  60.425968 -302.04346 43.901985
v  43.902035 -302.04346 60.425919
v  23.080664 -302.04346 71.034943
v  -2.6157852e-06 -302.04346 74.690559
v  -23.080669 -302.04346 71.034935
v  -43.902031 -302.04346 60.425915
v  -60.425972 -302.04346 43.901981
v  -71.034988 -302.04346 23.080601
v  -74.690605 -302.04346 -7.3743489e-05
v  -74.5261 -302.04346 1.0385566
v  74.690605 -302.04346 -5.0682651e-05
v  71.034988 -120.10422 23.080637
v  74.5261 -120.10422 1.0385979
v  60.425968 -120.10423 43.902008
v  43.902035 -120.10423 60.425938
v  23.080664 -120.10423 71.03495
v  -2.6157852e-06 -120.10423 74.690575
v  -23.080669 -120.10423 71.034943
v  -43.902031 -120.10423 60.425938
v  -60.425972 -120.10423 43.902004
v  -71.034988 -120.10422 23.080622
v  -74.690605 -120.10422 -5.2779007e-05
v  -74.5261 -120.10422 1.0385785
v  74.690605 -120.10422 -2.9871078e-05
v  80 -120.10422 -1.9567462e-05
v  79.823807 -120.10422 1.1124396
v  76.084526 -120.10423 24.72134
v  64.721359 -120.10423 47.022797
v  47.022816 -120.10423 64.721336
v  24.721357 -120.10423 76.084503
v  -3.4969109e-06 -120.10423 79.999977
v  -24.721363 -120.10423 76.084496
v  -47.022816 -120.10423 64.721336
v  -64.721367 -120.10423 47.022797
v  -76.084526 -120.10423 24.721325
v  -79.823807 -120.10422 1.112416
v  -80 -120.10422 -4.563477e-05
v  80 64.963531 1.0583903e-05
v  79.823807 64.963531 1.1124718
v  79.823807 -36.760452 1.1124532
v  80 -36.760452 -5.9890381e-06
v  76.084526 -36.760456 24.721354
v  76.084526 64.963524 24.721371
v  64.721359 64.963524 47.022831
v  64.721359 -36.76046 47.022812
v  47.02282 64.963524 64.721367
v  47.02282 -36.760464 64.721352
v  24.721357 64.963516 76.084534
v  24.721357 -36.760464 76.084518
v  -3.4969109e-06 64.963516 80.000008
v  -3.4969109e-06 -36.760464 79.999992
v  -24.721363 64.963516 76.084526
v  -24.721363 -36.760464 76.084511
v  -47.022816 64.963524 64.721367
v  -47.022816 -36.760464 64.721352
v  -64.721367 64.963524 47.022827
v  -64.721367 -36.76046 47.022808
v  -76.084526 64.963524 24.721355
v  -76.084526 -36.760456 24.721338
v  -79.823807 64.963531 1.1124469
v  -79.823807 -36.760452 1.1124296
v  78.830482 64.963531 1.0986283
v  75.519424 64.963531 1.0524818
v  71.981773 64.963531 23.388308
v  75.137741 64.963524 24.41374
v  61.231354 64.963524 44.487194
v  63.915974 64.963524 46.437683
v  44.487183 64.963524 61.231365
v  46.437672 64.963524 63.915985
v  23.388294 64.963516 71.981781
v  24.413727 64.963516 75.137749
v  -2.7809961e-06 64.963516 75.686127
v  -3.3317001e-06 64.963516 79.004494
v  -23.3883 64.963516 71.981773
v  -24.413733 64.963516 75.137741
v  -44.487179 64.963524 61.231361
v  -46.437668 64.963524 63.915985
v  -61.231358 64.963524 44.48719
v  -63.915981 64.963524 46.437679
v  -71.981773 64.963531 23.388292
v  -75.137741 64.963524 24.413725
v  -78.830482 64.963531 1.0986015
v  -75.519424 64.963531 1.0524597
v  -75.686119 64.963531 -1.411666e-05
v  -79.004486 64.963531 -1.5168005e-05
v  74.5261 64.963531 1.0386382
v  71.034988 64.963531 23.080677
v  79.004486 64.963531 1.0336085e-05
v  60.425968 64.963524 43.902046
v  43.902035 64.963524 60.42598
v  23.080664 64.963516 71.034996
v  -2.6157852e-06 64.963516 74.690613
v  -23.080669 64.963516 71.034988
v  -43.902031 64.963524 60.425976
v  -60.425972 64.963524 43.902042
v  -71.034988 64.963531 23.080662
v  -74.5261 64.963531 1.0386165
v  -74.690605 64.963531 -1.3801257e-05
v  -80 64.963531 -1.5483407e-05
v  -80 -36.760452 -3.2056349e-05
v  75.686119 64.963531 9.5100304e-06
v  74.690605 64.963531 9.262214e-06
v  74.5261 61.835022 1.0386376
v  71.034988 61.835018 23.080675
v  60.425968 61.835014 43.902046
v  43.902035 61.835011 60.42598
v  23.080664 61.835011 71.034996
v  -2.6157852e-06 61.835011 74.690613
v  -23.080669 61.835011 71.034988
v  -43.902031 61.835011 60.425976
v  -60.425972 61.835014 43.902042
v  -71.034988 61.835018 23.08066
v  -74.5261 61.835022 1.0386159
v  -74.690605 61.835022 -1.4460161e-05
v  74.690605 61.835022 8.6006794e-06

# 105 UV coordinates
vt 0.96348953 0.40772611 0
vt 0.8942678 0.62862915 0
vt 0.78645241 0.80393887 0
vt 0.65059698 0.91649461 0
vt 0.50000012 0.95527875 0
vt 0.3494032 0.91649461 0
vt 0.21354783 0.80393898 0
vt 0.10573226 0.62862945 0
vt 0.036510497 0.40772629 0
vt 0.014560312 0.18238023 0
vt 0.98543966 0.18238011 0
vt 0.99950051 0.16285315 0
vt 0.97505331 0.41383547 0
vt 0.90410447 0.64024985 0
vt 0.79359913 0.81993341 0
vt 0.65435421 0.93529737 0
vt 0.50000012 0.97504902 0
vt 0.34564596 0.93529737 0
vt 0.20640108 0.81993353 0
vt 0.095895618 0.64025009 0
vt 0.024946779 0.41383567 0
vt 0.00049948692 0.1628533 0
vt 0.75225002 0.66666669 0
vt 0.75225002 1 0
vt 0.75 1 0
vt 0.75 0.66666669 0
vt 0.80000001 0.66666669 0
vt 0.85000002 0.66666669 0
vt 0.85000002 1 0
vt 0.80000001 1 0
vt 0.90000004 0.66666669 0
vt 0.90000004 1 0
vt 0.94999999 0.66666669 0
vt 0.94999999 1 0
vt 1 0.66666669 0
vt 1 1 0
vt 3.7945494e-08 0.66666669 0
vt 0.050000019 0.66666669 0
vt 0.050000019 1 0
vt 3.7945494e-08 1 0
vt 0.1 0.66666669 0
vt 0.1 1 0
vt 0.15000005 0.66666669 0
vt 0.15000005 1 0
vt 0.20000003 0.66666669 0
vt 0.20000003 1 0
vt 0.24775006 0.66666669 0
vt 0.24775006 1 0
vt 0.43071181 0.98011672 0
vt 0.54164767 0.99910527 0
vt 0.70364946 0.99979353 0
vt 0.71477968 0.99541157 0
vt 0.32683724 0.92241311 0
vt 0.72927016 0.98209536 0
vt 0.24633676 0.83253777 0
vt 0.74915469 0.96135485 0
vt 0.19800824 0.71928811 0
vt 0.77646345 0.93522036 0
vt 0.1875 0.59375 0
vt 0.8125 0.90625 0
vt 0.029258309 0.46821183 0
vt 7.1147777e-09 0.59375 0
vt 3.0830712e-08 0.90625 0
vt 0.045213468 0.87727964 0
vt 0.096336842 0.35496223 0
vt 0.099154659 0.85114515 0
vt 0.19558731 0.26508671 0
vt 0.16052018 0.83040464 0
vt 0.31821194 0.20738328 0
vt 0.22727971 0.81708843 0
vt 0.45312515 0.1875 0
vt 0.44705406 0.18839474 0
vt 0.29374328 0.81270647 0
vt 0.29687509 0.8125 0
vt 0.34549147 0.9755283 0
vt 0.49304709 0.99889874 0
vt 0.703125 1 0
vt 0.20610735 0.90450847 0
vt 0.095491499 0.79389262 0
vt 0.0244717 0.65450847 0
vt 0 0.49999997 0
vt 0.02447176 0.34549147 0
vt 0.095491499 0.20610738 0
vt 0.20610744 0.095491439 0
vt 0.34549162 0.0244717 0
vt 0.50000018 0 0
vt 0.4930473 0.0011012265 0
vt 0.25000006 0.66666669 0
vt 0.25000006 1 0
vt 0.546875 1 0
vt 0.49999997 1 0
vt 0.75 0.39356244 0
vt 0.75224996 0.39356241 0
vt 0.80000001 0.39356241 0
vt 0.85000002 0.39356241 0
vt 0.90000004 0.39356241 0
vt 0.94999993 0.39356241 0
vt 1 0.39356241 0
vt 3.794549e-08 0.39356241 0
vt 0.050000019 0.39356241 0
vt 0.1 0.39356241 0
vt 0.15000005 0.39356241 0
vt 0.20000002 0.39356241 0
vt 0.24775004 0.39356241 0
vt 0.25000006 0.39356241 0

# 121 vertex normals
vn 0 -1 -1.6292068e-07
vn 0 -0.99999994 -1.6292067e-07
vn -3.8941437e-07 1 -1.6292068e-07
vn -3.8941434e-07 0.99999994 -1.6292067e-07
vn 0.9876886 -2.4801857e-08 0.15643309
vn 0.9876886 -2.4117524e-08 0.15643306
vn 0.98768872 -2.3925285e-08 0.15643172
vn 0.98768872 -2.4705633e-08 0.15643178
vn 0.95105642 -4.7501686e-08 0.30901706
vn 0.80901688 -8.5347914e-08 0.5877853
vn 0.80901688 -9.5762381e-08 0.5877853
vn 0.95105642 -4.974962e-08 0.30901706
vn 0.5877853 -1.2139111e-07 0.80901688
vn 0.5877853 -1.3180558e-07 0.80901688
vn 0.30901697 -1.5240103e-07 0.95105654
vn 0.30901697 -1.5494679e-07 0.95105654
vn -1.5127279e-07 -1.6292067e-07 0.99999994
vn -1.5367397e-07 -1.6292068e-07 1
vn -0.30901706 -1.5494676e-07 0.95105642
vn -0.30901703 -1.5494678e-07 0.95105648
vn -0.58778518 -1.3180562e-07 0.80901706
vn -0.809017 -9.5762367e-08 0.58778518
vn -0.9510566 -5.0146678e-08 0.30901679
vn -0.9510566 -4.994812e-08 0.30901676
vn -0.9876886 -2.5151868e-08 0.15643293
vn -0.9876886 -2.4817576e-08 0.15643291
vn -0.98768878 -2.5209561e-08 0.15643151
vn -0.98768878 -2.4933184e-08 0.15643148
vn -0.9876883 2.5486381e-08 -0.15643428
vn -0.98768842 2.5486383e-08 -0.1564343
vn -0.89100641 7.3964451e-08 -0.45399055
vn -0.70710677 1.1520232e-07 -0.70710677
vn -0.45399055 1.4516337e-07 -0.89100641
vn -0.1564344 1.6091485e-07 -0.9876883
vn 0.15643471 1.6091485e-07 -0.98768824
vn 0.45399067 1.4516338e-07 -0.89100647
vn 0.70710665 1.1520236e-07 -0.70710701
vn 0.89100665 7.3964401e-08 -0.45399025
vn 0.98768806 1.7560268e-08 -0.15643644
vn 0.9876883 2.5486377e-08 -0.15643427
vn 0.98768842 2.5486381e-08 -0.15643428
vn -0.987688 1.7560287e-08 -0.15643662
vn -0.98768795 1.7560287e-08 -0.15643662
vn -0.98768836 1.750054e-08 -0.1564343
vn -0.89100641 5.1982244e-08 -0.45399055
vn -0.89100647 5.1982248e-08 -0.45399061
vn -0.70710671 7.9312997e-08 -0.70710677
vn -0.70710677 7.9312997e-08 -0.70710683
vn -0.45399049 8.0113999e-08 -0.89100659
vn -0.45399052 8.0113999e-08 -0.89100659
vn -0.15643455 9.9005781e-08 -0.98768836
vn 0.15643486 9.9005774e-08 -0.98768824
vn 0.45399049 8.9086299e-08 -0.89100659
vn 0.45399043 8.9086299e-08 -0.89100647
vn 0.70710665 8.6490907e-08 -0.70710701
vn 0.89100665 5.2430803e-08 -0.45399016
vn 0.89100671 5.2430817e-08 -0.45399022
vn 0.98768806 1.8457623e-08 -0.15643635
vn 0.98768842 1.797029e-08 -0.15643427
vn 0.9876883 1.797029e-08 -0.15643425
vn -0.98768795 1.7367274e-08 -0.15643671
vn -0.987688 1.7367274e-08 -0.15643671
vn 0.98768872 -2.5485985e-08 0.15643185
vn 0.9876886 -2.5486191e-08 0.15643312
vn 0.95105642 -5.0345271e-08 0.30901706
vn 0.80901688 -9.6688105e-08 0.58778524
vn 0.58778524 -1.3273132e-07 0.80901688
vn 0.30901694 -1.5494678e-07 0.95105648
vn -1.4887162e-07 -1.6292067e-07 0.99999994
vn -0.30901709 -1.5494676e-07 0.95105642
vn -0.58778518 -1.3180561e-07 0.809017
vn -0.9510566 -5.0345228e-08 0.30901679
vn -0.9876886 -2.5486164e-08 0.15643296
vn -0.98768878 -2.5485933e-08 0.15643154
vn 0.98768872 -2.7046642e-08 0.15643172
vn 0.9876886 -2.685484e-08 0.15643306
vn 0.9876886 -2.6170515e-08 0.15643309
vn 0.98768872 -2.6266312e-08 0.15643178
vn 0.95105642 -5.3188852e-08 0.30901703
vn 0.95105642 -5.0940912e-08 0.309017
vn 0.80901688 -1.0710258e-07 0.5877853
vn 0.58778524 -1.3180558e-07 0.80901688
vn 0.5877853 -1.4314577e-07 0.80901688
vn 0.30901694 -1.5494679e-07 0.95105654
vn 0.30901697 -1.5749255e-07 0.95105654
vn -1.5847627e-07 -1.6292068e-07 1
vn -1.5367394e-07 -1.6292067e-07 0.99999994
vn -0.9510566 -5.0742319e-08 0.30901673
vn -0.9510566 -5.0543772e-08 0.30901676
vn -0.9876886 -2.6154739e-08 0.15643291
vn -0.9876886 -2.5820453e-08 0.15643294
vn 0 1 1.6292068e-07
vn 0 0.99999994 1.6292067e-07
vn -0.98768878 -2.6038666e-08 0.1564315
vn -0.98768878 -2.5762299e-08 0.15643151
vn -0.89100641 7.3964458e-08 -0.45399061
vn 0.45399055 1.4516338e-07 -0.89100647
vn 0.70710653 1.1520235e-07 -0.70710695
vn 0.98768806 3.2280845e-08 -0.15643644
vn 0.9876883 2.5486376e-08 -0.15643425
vn 0.98768842 2.5486377e-08 -0.15643427
vn -0.987688 3.3413237e-08 -0.15643662
vn -0.98768795 3.3413237e-08 -0.15643662
vn -0.98768836 3.3472226e-08 -0.1564343
vn -0.89100641 9.5498038e-08 -0.45399055
vn -0.89100647 9.5498052e-08 -0.45399061
vn -0.70710671 1.5109164e-07 -0.70710677
vn -0.70710677 1.5109165e-07 -0.70710683
vn -0.45399049 2.1021279e-07 -0.89100659
vn -0.15643455 2.2282396e-07 -0.98768836
vn 0.15643486 2.2282393e-07 -0.98768824
vn 0.45399049 2.012405e-07 -0.89100659
vn 0.45399043 2.0124047e-07 -0.89100647
vn 0.70710665 1.4391381e-07 -0.70710701
vn 0.89100671 9.5497988e-08 -0.45399025
vn 0.89100665 9.5497981e-08 -0.45399019
vn 0.98768806 3.253529e-08 -0.15643637
vn 0.98768836 3.3002461e-08 -0.15643424
vn 0.98768842 3.3002465e-08 -0.15643425
vn -0.98768795 3.3606277e-08 -0.15643671
vn -0.987688 3.3606277e-08 -0.15643671

# Mesh 'entrada001' with 31 faces
g entrada001
usemtl 02 - Default
f  1/1/1 2/2/1 3/3/1
f  3/3/1 4/4/1 5/5/1
f  1/1/1 3/3/1 5/5/1
f  5/5/1 6/6/1 7/7/1
f  7/7/1 8/8/1 9/9/1
f  5/5/1 7/7/1 9/9/1
f  1/1/1 5/5/1 9/9/1
f  1/1/1 9/9/1 10/10/1
f  11/11/1 1/1/1 10/10/1
f  12/12/2 13/13/1 1/1/2
f  1/1/1 11/11/1 12/12/1
f  13/13/1 14/14/1 2/2/1
f  2/2/1 1/1/2 13/13/1
f  14/14/1 15/15/1 3/3/1
f  3/3/1 2/2/2 14/14/1
f  15/15/1 16/16/1 4/4/2
f  4/4/1 3/3/1 15/15/2
f  16/16/1 17/17/1 5/5/2
f  5/5/2 4/4/1 16/16/1
f  17/17/1 18/18/1 6/6/1
f  6/6/1 5/5/1 17/17/1
f  18/18/1 19/19/1 7/7/1
f  7/7/1 6/6/2 18/18/1
f  19/19/1 20/20/1 8/8/1
f  8/8/1 7/7/1 19/19/1
f  20/20/1 21/21/1 9/9/1
f  9/9/1 8/8/1 20/20/1
f  21/21/1 22/22/1 10/10/1
f  10/10/1 9/9/1 21/21/1
f  22/22/1 12/12/1 11/11/1
f  11/11/1 10/10/2 22/22/2

# Mesh 'entrada002' with 31 faces
g entrada002
usemtl 02 - Default
f  23/1/3 24/2/3 25/3/3
f  25/3/3 26/4/3 27/5/3
f  23/1/3 25/3/3 27/5/3
f  27/5/3 28/6/3 29/7/3
f  29/7/3 30/8/3 31/9/3
f  27/5/3 29/7/3 31/9/3
f  23/1/3 27/5/3 31/9/3
f  23/1/3 31/9/3 32/10/3
f  33/11/3 23/1/3 32/10/3
f  34/12/4 35/13/3 23/1/4
f  23/1/3 33/11/3 34/12/3
f  35/13/3 36/14/3 24/2/3
f  24/2/3 23/1/4 35/13/3
f  36/14/3 37/15/3 25/3/3
f  25/3/3 24/2/4 36/14/3
f  37/15/3 38/16/3 26/4/4
f  26/4/3 25/3/3 37/15/4
f  38/16/3 39/17/3 27/5/4
f  27/5/4 26/4/3 38/16/3
f  39/17/3 40/18/3 28/6/3
f  28/6/3 27/5/3 39/17/3
f  40/18/3 41/19/3 29/7/3
f  29/7/3 28/6/4 40/18/3
f  41/19/3 42/20/3 30/8/3
f  30/8/3 29/7/3 41/19/3
f  42/20/3 43/21/3 31/9/3
f  31/9/3 30/8/3 42/20/3
f  43/21/3 44/22/3 32/10/3
f  32/10/3 31/9/3 43/21/3
f  44/22/3 34/12/3 33/11/3
f  33/11/3 32/10/4 44/22/4

# Mesh 'Cylinder001' with 168 faces
g Cylinder001
usemtl 01 - Default
f  45/23/5 46/24/6 47/25/7 48/26/8
f  49/27/9 50/28/10 51/29/11 52/30/12
f  50/28/10 53/31/13 54/32/14 51/29/11
f  53/31/13 55/33/15 56/34/16 54/32/14
f  55/33/15 57/35/17 58/36/18 56/34/16
f  57/37/17 59/38/19 60/39/20 58/40/18
f  59/38/19 61/41/21 62/42/21 60/39/20
f  61/41/21 63/43/22 64/44/22 62/42/21
f  63/43/22 65/45/23 66/46/24 64/44/22
f  67/47/25 68/48/26 66/46/24 65/45/23
f  69/49/1 70/50/1 71/51/1 72/52/1
f  73/53/1 69/49/1 72/52/1 74/54/1
f  75/55/1 73/53/1 74/54/1 76/56/1
f  77/57/1 75/55/1 76/56/1 78/58/1
f  79/59/1 77/57/1 78/58/1 80/60/1
f  81/61/1 79/62/1 80/63/1 82/64/1
f  83/65/2 81/61/1 82/64/1 84/66/1
f  85/67/2 83/65/2 84/66/1 86/68/1
f  87/69/2 85/67/1 86/68/1 88/70/1
f  89/71/1 90/72/1 91/73/1 92/74/1
f  93/75/2 94/76/1 70/50/1 69/49/1
f  95/77/2 47/25/1 46/24/1 71/51/1
f  96/78/1 93/75/1 69/49/1 73/53/1
f  52/30/1 51/29/1 74/54/1 72/52/1
f  97/79/1 96/78/1 73/53/1 75/55/1
f  51/29/1 54/32/1 76/56/1 74/54/1
f  98/80/2 97/79/1 75/55/1 77/57/1
f  54/32/1 56/34/1 78/58/1 76/56/2
f  99/81/2 98/80/1 77/57/1 79/59/1
f  56/34/1 58/36/1 80/60/2 78/58/1
f  100/82/2 99/81/2 79/62/1 81/61/1
f  58/40/1 60/39/1 82/64/1 80/63/2
f  101/83/1 100/82/2 81/61/1 83/65/1
f  60/39/1 62/42/1 84/66/1 82/64/1
f  102/84/2 101/83/2 83/65/1 85/67/1
f  62/42/1 64/44/1 86/68/2 84/66/2
f  103/85/2 102/84/1 85/67/1 87/69/1
f  64/44/1 66/46/1 88/70/1 86/68/1
f  104/86/2 105/87/1 90/72/1 89/71/1
f  66/46/1 68/48/1 91/73/1 88/70/1
f  106/88/27 107/89/28 68/48/26 67/47/25
f  87/69/1 88/70/1 91/73/1 90/72/1
f  103/85/1 87/69/1 90/72/2 105/87/1
f  68/48/2 107/89/1 92/74/2 91/73/1
f  49/27/9 52/30/12 46/24/6 45/23/5
f  108/90/2 95/77/1 71/51/2 70/50/1
f  109/91/1 108/90/1 70/50/1 94/76/1
f  52/30/1 72/52/1 71/51/1 46/24/1
f  93/75/29 110/75/29 111/76/30 94/76/29
f  96/78/31 112/78/31 110/75/31 93/75/31
f  97/79/32 113/79/32 112/78/32 96/78/32
f  98/80/33 114/80/33 113/79/33 97/79/33
f  99/81/34 115/81/34 114/80/34 98/80/34
f  100/82/35 116/82/35 115/81/35 99/81/35
f  101/83/36 117/83/36 116/82/36 100/82/36
f  102/84/37 118/84/37 117/83/37 101/83/37
f  103/85/38 119/85/38 118/84/38 102/84/38
f  104/86/39 120/86/39 121/87/39 105/87/39
f  105/87/40 121/87/41 119/85/40 103/85/40
f  94/76/42 111/76/43 122/91/42 109/91/43
f  123/75/44 124/76/44 111/76/44 110/75/44
f  125/78/45 123/75/46 110/75/45 112/78/46
f  126/79/47 125/78/48 112/78/47 113/79/48
f  127/80/49 126/79/50 113/79/49 114/80/50
f  128/81/51 127/80/51 114/80/51 115/81/51
f  129/82/52 128/81/52 115/81/52 116/82/52
f  130/83/53 129/82/54 116/82/53 117/83/54
f  131/84/55 130/83/55 117/83/55 118/84/55
f  132/85/56 131/84/57 118/84/56 119/85/57
f  133/86/58 134/87/58 121/87/58 120/86/58
f  134/87/59 132/85/60 119/85/59 121/87/60
f  124/76/61 135/91/62 122/91/61 111/76/62
f  45/23/5 48/26/8 136/92/63 137/93/64
f  50/28/10 49/27/9 138/94/65 139/95/66
f  53/31/13 50/28/10 139/95/66 140/96/67
f  55/33/15 53/31/13 140/96/67 141/97/68
f  57/35/17 55/33/15 141/97/68 142/98/69
f  59/38/19 57/37/17 142/99/69 143/100/70
f  61/41/21 59/38/19 143/100/70 144/101/71
f  63/43/22 61/41/21 144/101/71 145/102/22
f  65/45/23 63/43/22 145/102/22 146/103/72
f  67/47/25 65/45/23 146/103/72 147/104/73
f  106/88/27 67/47/25 147/104/73 148/105/74
f  49/27/9 45/23/5 137/93/64 138/94/65
f  149/25/75 150/24/76 151/23/77 152/26/78
f  153/27/79 154/30/80 155/29/11 156/28/81
f  156/28/81 155/29/11 157/32/82 158/31/83
f  158/31/83 157/32/82 159/34/84 160/33/85
f  160/33/85 159/34/84 161/36/86 162/35/87
f  162/37/87 161/40/86 163/39/19 164/38/19
f  164/38/19 163/39/19 165/42/21 166/41/21
f  166/41/21 165/42/21 167/44/22 168/43/22
f  168/43/22 167/44/22 169/46/88 170/45/89
f  169/46/88 171/48/90 172/47/91 170/45/89
f  173/51/92 174/50/92 175/49/92 176/52/92
f  176/52/92 175/49/92 177/53/92 178/54/92
f  178/54/92 177/53/92 179/55/92 180/56/92
f  180/56/92 179/55/92 181/57/92 182/58/92
f  182/58/92 181/57/92 183/59/92 184/60/92
f  184/63/92 183/62/92 185/61/92 186/64/92
f  186/64/92 185/61/92 187/65/93 188/66/92
f  188/66/92 187/65/93 189/67/93 190/68/92
f  190/68/92 189/67/92 191/69/92 192/70/92
f  193/73/92 194/72/92 195/71/92 196/74/92
f  174/50/92 197/76/92 198/75/93 175/49/92
f  199/77/93 173/51/92 150/24/92 149/25/92
f  175/49/92 198/75/92 200/78/92 177/53/92
f  178/54/92 155/29/92 154/30/92 176/52/92
f  177/53/92 200/78/92 201/79/92 179/55/92
f  180/56/92 157/32/92 155/29/92 178/54/92
f  179/55/92 201/79/92 202/80/93 181/57/92
f  182/58/92 159/34/92 157/32/92 180/56/93
f  181/57/92 202/80/92 203/81/93 183/59/92
f  184/60/93 161/36/92 159/34/92 182/58/92
f  183/62/92 203/81/93 204/82/93 185/61/92
f  186/64/92 163/39/92 161/40/92 184/63/93
f  185/61/92 204/82/93 205/83/92 187/65/92
f  188/66/92 165/42/92 163/39/92 186/64/92
f  187/65/92 205/83/93 206/84/93 189/67/92
f  190/68/93 167/44/92 165/42/92 188/66/93
f  189/67/92 206/84/92 207/85/93 191/69/92
f  192/70/92 169/46/92 167/44/92 190/68/92
f  194/72/92 208/87/92 209/86/93 195/71/92
f  193/73/92 171/48/92 169/46/92 192/70/92
f  171/48/90 210/89/94 211/88/95 172/47/91
f  193/73/92 192/70/92 191/69/92 194/72/92
f  194/72/93 191/69/92 207/85/92 208/87/92
f  171/48/93 193/73/92 196/74/93 210/89/92
f  150/24/76 154/30/80 153/27/79 151/23/77
f  173/51/93 199/77/92 212/90/93 174/50/92
f  174/50/92 212/90/92 213/91/92 197/76/92
f  173/51/92 176/52/92 154/30/92 150/24/92
f  214/76/30 215/75/29 198/75/29 197/76/29
f  215/75/96 216/78/96 200/78/96 198/75/96
f  216/78/32 217/79/32 201/79/32 200/78/32
f  217/79/33 218/80/33 202/80/33 201/79/33
f  218/80/34 219/81/34 203/81/34 202/80/34
f  219/81/35 220/82/35 204/82/35 203/81/35
f  220/82/97 221/83/97 205/83/97 204/82/97
f  221/83/98 222/84/98 206/84/98 205/83/98
f  222/84/38 223/85/38 207/85/38 206/84/38
f  224/87/99 225/86/99 209/86/99 208/87/99
f  223/85/100 224/87/101 208/87/100 207/85/100
f  226/91/102 214/76/103 197/76/102 213/91/103
f  214/76/104 124/76/104 123/75/104 215/75/104
f  215/75/105 123/75/106 125/78/105 216/78/106
f  216/78/107 125/78/108 126/79/107 217/79/108
f  217/79/109 126/79/109 127/80/109 218/80/109
f  218/80/110 127/80/110 128/81/110 219/81/110
f  219/81/111 128/81/111 129/82/111 220/82/111
f  220/82/112 129/82/113 130/83/112 221/83/113
f  221/83/114 130/83/114 131/84/114 222/84/114
f  222/84/115 131/84/116 132/85/115 223/85/116
f  224/87/117 134/87/117 133/86/117 225/86/117
f  223/85/118 132/85/119 134/87/118 224/87/119
f  226/91/120 135/91/121 124/76/120 214/76/121
f  136/92/63 152/26/78 151/23/77 137/93/64
f  138/94/65 153/27/79 156/28/81 139/95/66
f  139/95/66 156/28/81 158/31/83 140/96/67
f  140/96/67 158/31/83 160/33/85 141/97/68
f  141/97/68 160/33/85 162/35/87 142/98/69
f  142/99/69 162/37/87 164/38/19 143/100/70
f  143/100/70 164/38/19 166/41/21 144/101/71
f  144/101/71 166/41/21 168/43/22 145/102/22
f  145/102/22 168/43/22 170/45/89 146/103/72
f  146/103/72 170/45/89 172/47/91 147/104/73
f  147/104/73 172/47/91 211/88/95 148/105/74
f  137/93/64 151/23/77 153/27/79 138/94/65

